<svg xmlns="http://www.w3.org/2000/svg" width="680" height="778" viewBox="0 0 680 778">
<defs><marker id="arrow" viewBox="0 0 10 10" refX="8" refY="5" markerWidth="6" markerHeight="6" orient="auto-start-reverse"><path d="M2 1L8 5L2 9" fill="none" stroke="#5F5E5A" stroke-width="1.5" stroke-linecap="round" stroke-linejoin="round"/></marker><style>text{font-family:"DejaVu Sans",Arial,Helvetica,sans-serif;}.th{font-weight:500;font-size:14px;}.ts{font-weight:400;font-size:12px;}</style></defs>
<rect x="0" y="0" width="680" height="778" fill="#FFFFFF"/>
<rect x="164" y="22" width="14" height="14" rx="3" fill="#EAF3DE" stroke="#3B6D11" stroke-width="0.5"/>
<text class="ts" x="184" y="29" fill="#5F5E5A" dominant-baseline="central">built</text>
<rect x="256" y="22" width="14" height="14" rx="3" fill="#FAEEDA" stroke="#854F0B" stroke-width="0.5"/>
<text class="ts" x="276" y="29" fill="#5F5E5A" dominant-baseline="central">partial</text>
<rect x="362" y="22" width="14" height="14" rx="3" fill="#F1EFE8" stroke="#5F5E5A" stroke-width="0.5"/>
<text class="ts" x="382" y="29" fill="#5F5E5A" dominant-baseline="central">spec'd</text>
<rect x="472" y="22" width="14" height="14" rx="3" fill="#F1EFE8" stroke="#5F5E5A" stroke-width="0.5" stroke-dasharray="3 2"/>
<text class="ts" x="492" y="29" fill="#5F5E5A" dominant-baseline="central">future</text>
<rect x="164" y="64" width="376" height="48" rx="8" fill="#F1EFE8" stroke="#5F5E5A" stroke-width="0.5"/>
<text class="th" x="176" y="83" fill="#444441" dominant-baseline="central">Pool acquisition</text>
<text class="ts" x="176" y="98" fill="#5F5E5A" dominant-baseline="central">gather the candidates</text>
<text class="ts" x="524" y="83" text-anchor="end" fill="#5F5E5A" dominant-baseline="central">spec'd</text>
<circle cx="140" cy="88.0" r="11" fill="#FFFFFF" stroke="#B4B2A9" stroke-width="0.5"/>
<text class="ts" x="140" y="88.0" text-anchor="middle" fill="#444441" dominant-baseline="central">1</text>
<line x1="352.0" y1="112" x2="352.0" y2="124" stroke="#5F5E5A" stroke-width="1.5" marker-end="url(#arrow)"/>
<rect x="164" y="130" width="376" height="48" rx="8" fill="#EAF3DE" stroke="#3B6D11" stroke-width="0.5"/>
<text class="th" x="176" y="149" fill="#27500A" dominant-baseline="central">Consent gate</text>
<text class="ts" x="176" y="164" fill="#3B6D11" dominant-baseline="central">are we allowed?</text>
<text class="ts" x="524" y="149" text-anchor="end" fill="#3B6D11" dominant-baseline="central">built</text>
<circle cx="140" cy="154.0" r="11" fill="#FFFFFF" stroke="#B4B2A9" stroke-width="0.5"/>
<text class="ts" x="140" y="154.0" text-anchor="middle" fill="#444441" dominant-baseline="central">2</text>
<line x1="352.0" y1="178" x2="352.0" y2="190" stroke="#5F5E5A" stroke-width="1.5" marker-end="url(#arrow)"/>
<rect x="164" y="196" width="376" height="48" rx="8" fill="#EAF3DE" stroke="#3B6D11" stroke-width="0.5"/>
<text class="th" x="176" y="215" fill="#27500A" dominant-baseline="central">Meaning pass</text>
<text class="ts" x="176" y="230" fill="#3B6D11" dominant-baseline="central">what is it about?</text>
<text class="ts" x="524" y="215" text-anchor="end" fill="#3B6D11" dominant-baseline="central">built</text>
<circle cx="140" cy="220.0" r="11" fill="#FFFFFF" stroke="#B4B2A9" stroke-width="0.5"/>
<text class="ts" x="140" y="220.0" text-anchor="middle" fill="#444441" dominant-baseline="central">3</text>
<line x1="352.0" y1="244" x2="352.0" y2="256" stroke="#5F5E5A" stroke-width="1.5" marker-end="url(#arrow)"/>
<rect x="164" y="262" width="376" height="48" rx="8" fill="#EAF3DE" stroke="#3B6D11" stroke-width="0.5"/>
<text class="th" x="176" y="281" fill="#27500A" dominant-baseline="central">Scoring (v3)</text>
<text class="ts" x="176" y="296" fill="#3B6D11" dominant-baseline="central">how much it matters</text>
<text class="ts" x="524" y="281" text-anchor="end" fill="#3B6D11" dominant-baseline="central">built</text>
<circle cx="140" cy="286.0" r="11" fill="#FFFFFF" stroke="#B4B2A9" stroke-width="0.5"/>
<text class="ts" x="140" y="286.0" text-anchor="middle" fill="#444441" dominant-baseline="central">4</text>
<line x1="352.0" y1="310" x2="352.0" y2="322" stroke="#5F5E5A" stroke-width="1.5" marker-end="url(#arrow)"/>
<rect x="164" y="328" width="376" height="48" rx="8" fill="#EAF3DE" stroke="#3B6D11" stroke-width="0.5"/>
<text class="th" x="176" y="347" fill="#27500A" dominant-baseline="central">Route + verdict</text>
<text class="ts" x="176" y="362" fill="#3B6D11" dominant-baseline="central">which lane, how loud?</text>
<text class="ts" x="524" y="347" text-anchor="end" fill="#3B6D11" dominant-baseline="central">built</text>
<circle cx="140" cy="352.0" r="11" fill="#FFFFFF" stroke="#B4B2A9" stroke-width="0.5"/>
<text class="ts" x="140" y="352.0" text-anchor="middle" fill="#444441" dominant-baseline="central">5</text>
<line x1="352.0" y1="376" x2="352.0" y2="388" stroke="#5F5E5A" stroke-width="1.5" marker-end="url(#arrow)"/>
<rect x="164" y="394" width="376" height="48" rx="8" fill="#EAF3DE" stroke="#3B6D11" stroke-width="0.5"/>
<text class="th" x="176" y="413" fill="#27500A" dominant-baseline="central">DJ persona</text>
<text class="ts" x="176" y="428" fill="#3B6D11" dominant-baseline="central">who is the host?</text>
<text class="ts" x="524" y="413" text-anchor="end" fill="#3B6D11" dominant-baseline="central">built</text>
<circle cx="140" cy="418.0" r="11" fill="#FFFFFF" stroke="#B4B2A9" stroke-width="0.5"/>
<text class="ts" x="140" y="418.0" text-anchor="middle" fill="#444441" dominant-baseline="central">6</text>
<line x1="352.0" y1="442" x2="352.0" y2="454" stroke="#5F5E5A" stroke-width="1.5" marker-end="url(#arrow)"/>
<rect x="164" y="460" width="376" height="48" rx="8" fill="#FAEEDA" stroke="#854F0B" stroke-width="0.5"/>
<text class="th" x="176" y="479" fill="#633806" dominant-baseline="central">Generation</text>
<text class="ts" x="176" y="494" fill="#854F0B" dominant-baseline="central">write the line</text>
<text class="ts" x="524" y="479" text-anchor="end" fill="#854F0B" dominant-baseline="central">partial</text>
<circle cx="140" cy="484.0" r="11" fill="#FFFFFF" stroke="#B4B2A9" stroke-width="0.5"/>
<text class="ts" x="140" y="484.0" text-anchor="middle" fill="#444441" dominant-baseline="central">7</text>
<line x1="352.0" y1="508" x2="352.0" y2="520" stroke="#5F5E5A" stroke-width="1.5" marker-end="url(#arrow)"/>
<rect x="164" y="526" width="376" height="48" rx="8" fill="#F1EFE8" stroke="#D85A30" stroke-width="1.5"/>
<text class="th" x="176" y="545" fill="#444441" dominant-baseline="central">Output gate</text>
<text class="ts" x="176" y="560" fill="#5F5E5A" dominant-baseline="central">did it invent anything?</text>
<text class="ts" x="524" y="545" text-anchor="end" fill="#5F5E5A" dominant-baseline="central">spec'd</text>
<circle cx="140" cy="550.0" r="11" fill="#FFFFFF" stroke="#B4B2A9" stroke-width="0.5"/>
<text class="ts" x="140" y="550.0" text-anchor="middle" fill="#444441" dominant-baseline="central">8</text>
<text class="ts" x="548" y="550.0" fill="#993C1D" dominant-baseline="central">&#8592; next build</text>
<line x1="352.0" y1="574" x2="352.0" y2="586" stroke="#5F5E5A" stroke-width="1.5" marker-end="url(#arrow)"/>
<rect x="164" y="592" width="376" height="48" rx="8" fill="#F1EFE8" stroke="#5F5E5A" stroke-width="0.5"/>
<text class="th" x="176" y="611" fill="#444441" dominant-baseline="central">Session program</text>
<text class="ts" x="176" y="626" fill="#5F5E5A" dominant-baseline="central">assemble the hour</text>
<text class="ts" x="524" y="611" text-anchor="end" fill="#5F5E5A" dominant-baseline="central">spec'd</text>
<circle cx="140" cy="616.0" r="11" fill="#FFFFFF" stroke="#B4B2A9" stroke-width="0.5"/>
<text class="ts" x="140" y="616.0" text-anchor="middle" fill="#444441" dominant-baseline="central">9</text>
<line x1="352.0" y1="640" x2="352.0" y2="652" stroke="#5F5E5A" stroke-width="1.5" marker-end="url(#arrow)"/>
<rect x="164" y="658" width="376" height="48" rx="8" fill="#F1EFE8" stroke="#5F5E5A" stroke-width="0.5" stroke-dasharray="3 2"/>
<text class="th" x="176" y="677" fill="#444441" dominant-baseline="central">Voice + app</text>
<text class="ts" x="176" y="692" fill="#5F5E5A" dominant-baseline="central">hear it, open it</text>
<text class="ts" x="524" y="677" text-anchor="end" fill="#5F5E5A" dominant-baseline="central">future</text>
<circle cx="140" cy="682.0" r="11" fill="#FFFFFF" stroke="#B4B2A9" stroke-width="0.5"/>
<text class="ts" x="140" y="682.0" text-anchor="middle" fill="#444441" dominant-baseline="central">10</text>
<line x1="352.0" y1="706" x2="352.0" y2="718" stroke="#5F5E5A" stroke-width="1.5" marker-end="url(#arrow)"/>
<rect x="210" y="724" width="284" height="32" rx="8" fill="#F1EFE8" stroke="#B4B2A9" stroke-width="0.5"/>
<text class="th" x="352" y="740" text-anchor="middle" fill="#2C2C2A" dominant-baseline="central">the listener's hour</text>
</svg>