<svg viewBox="0 0 1300 1320" xmlns="http://www.w3.org/2000/svg" font-family="-apple-system, BlinkMacSystemFont, Segoe UI, Roboto, Helvetica, Arial, sans-serif">
<defs>
  <marker id="arr" markerWidth="9" markerHeight="9" refX="7" refY="4" orient="auto"><path d="M0,0 L8,4 L0,8 z" fill="#6b7686"/></marker>
  <marker id="arrPurple" markerWidth="10" markerHeight="10" refX="8" refY="4.5" orient="auto"><path d="M0,0 L9,4.5 L0,9 z" fill="#7c5cbf"/></marker>
  <marker id="arrGreen" markerWidth="10" markerHeight="10" refX="8" refY="4.5" orient="auto"><path d="M0,0 L9,4.5 L0,9 z" fill="#2c8b57"/></marker>
  <marker id="arrRed" markerWidth="10" markerHeight="10" refX="8" refY="4.5" orient="auto"><path d="M0,0 L9,4.5 L0,9 z" fill="#b34c2f"/></marker>
  <filter id="shadow" x="-10%" y="-10%" width="120%" height="120%"><feDropShadow dx="0" dy="1" stdDeviation="1.2" flood-opacity="0.12"/></filter>
</defs>
<rect x="0" y="0" width="1300" height="1320" rx="0" fill="#ffffff" stroke="#ffffff" stroke-width="0"/>
<text x="72" y="52" font-size="30" font-weight="750" fill="#16202e" text-anchor="start" >Drift — End-to-End Control Pipeline</text>
<text x="72" y="83" font-size="14.5" font-weight="400" fill="#5b6675" text-anchor="start" >What the listener hears is simple. Everything below makes that simplicity trustworthy.</text>
<rect x="72" y="105" width="1075" height="48" rx="10" fill="#f6f8fb" stroke="#bcc6d2" stroke-width="1.5"/>
<text x="609" y="135" font-size="13" font-weight="650" fill="#3a4654" text-anchor="middle" >SOURCES — friends · local orgs · creators · followed brands · weather · local events · news · music context</text>
<line x1="609" y1="154" x2="609" y2="183" stroke="#6b7686" stroke-width="2.1" marker-end="url(#arr)"/>
<rect x="72" y="184" width="1075" height="268" rx="14" fill="#eef4fd" stroke="#5588cc" stroke-width="1.8"/>
<text x="94" y="210" font-size="14" font-weight="750" fill="#2862a6" text-anchor="start" >1  DECIDE WHAT DESERVES ATTENTION</text>
<rect x="90" y="226" width="196" height="58" rx="9" fill="#ffffff" stroke="#9cc0e8" stroke-width="1.6"/>
<circle cx="112" cy="255.0" r="14" fill="#2862a6"/>
<text x="112" y="260.0" font-size="12" font-weight="700" fill="#fff" text-anchor="middle" >1</text>
<text x="134" y="260.0" font-size="13.5" font-weight="600" fill="#1b2632" text-anchor="start" >Acquisition</text>
<rect x="298" y="226" width="196" height="58" rx="9" fill="#ffffff" stroke="#9cc0e8" stroke-width="1.6"/>
<circle cx="320" cy="255.0" r="14" fill="#2862a6"/>
<text x="320" y="260.0" font-size="12" font-weight="700" fill="#fff" text-anchor="middle" >2</text>
<text x="342" y="252.0" font-size="13.2" font-weight="600" fill="#1b2632" text-anchor="start" >Permission /</text>
<text x="342" y="269.0" font-size="13.2" font-weight="600" fill="#1b2632" text-anchor="start" >Provenance</text>
<rect x="506" y="226" width="196" height="58" rx="9" fill="#ffffff" stroke="#9cc0e8" stroke-width="1.6"/>
<circle cx="528" cy="255.0" r="14" fill="#2862a6"/>
<text x="528" y="260.0" font-size="12" font-weight="700" fill="#fff" text-anchor="middle" >3</text>
<text x="550" y="260.0" font-size="13.5" font-weight="600" fill="#1b2632" text-anchor="start" >Normalize</text>
<rect x="714" y="226" width="196" height="58" rx="9" fill="#ffffff" stroke="#9cc0e8" stroke-width="1.6"/>
<circle cx="736" cy="255.0" r="14" fill="#2862a6"/>
<text x="736" y="260.0" font-size="12" font-weight="700" fill="#fff" text-anchor="middle" >4</text>
<text x="758" y="251.0" font-size="13.5" font-weight="600" fill="#1b2632" text-anchor="start" >Meaning Pass</text>
<text x="758" y="271.0" font-size="9.8" font-weight="400" fill="#5b6675" text-anchor="start" >structured model judgment</text>
<rect x="922" y="226" width="196" height="58" rx="9" fill="#ffffff" stroke="#9cc0e8" stroke-width="1.6"/>
<circle cx="944" cy="255.0" r="14" fill="#2862a6"/>
<text x="944" y="260.0" font-size="12" font-weight="700" fill="#fff" text-anchor="middle" >5</text>
<text x="966" y="260.0" font-size="13.5" font-weight="600" fill="#1b2632" text-anchor="start" >Allowed Claims</text>
<line x1="286" y1="255.0" x2="296" y2="255.0" stroke="#6b7686" stroke-width="1.8" marker-end="url(#arr)"/>
<line x1="494" y1="255.0" x2="504" y2="255.0" stroke="#6b7686" stroke-width="1.8" marker-end="url(#arr)"/>
<line x1="702" y1="255.0" x2="712" y2="255.0" stroke="#6b7686" stroke-width="1.8" marker-end="url(#arr)"/>
<line x1="910" y1="255.0" x2="920" y2="255.0" stroke="#6b7686" stroke-width="1.8" marker-end="url(#arr)"/>
<path d="M 1020.0,284 L 1020.0,299 L 188.0,299 L 188.0,318" fill="none" stroke="#b9c2cd" stroke-width="1.5" marker-end="url(#arr)"/>
<rect x="90" y="320" width="196" height="58" rx="9" fill="#ffffff" stroke="#9cc0e8" stroke-width="1.6"/>
<circle cx="112" cy="349.0" r="14" fill="#2862a6"/>
<text x="112" y="354.0" font-size="12" font-weight="700" fill="#fff" text-anchor="middle" >6</text>
<text x="134" y="354.0" font-size="13.5" font-weight="600" fill="#1b2632" text-anchor="start" >Serious Fact</text>
<rect x="298" y="320" width="196" height="58" rx="9" fill="#fff7e9" stroke="#e0a94e" stroke-width="1.6"/>
<circle cx="320" cy="349.0" r="14" fill="#c4781a"/>
<text x="320" y="354.0" font-size="12" font-weight="700" fill="#fff" text-anchor="middle" >7</text>
<text x="342" y="346.0" font-size="13.2" font-weight="700" fill="#1b2632" text-anchor="start" >Freshness /</text>
<text x="342" y="363.0" font-size="13.2" font-weight="700" fill="#1b2632" text-anchor="start" >Decay Features</text>
<rect x="506" y="320" width="196" height="58" rx="9" fill="#ffffff" stroke="#9cc0e8" stroke-width="1.6"/>
<circle cx="528" cy="349.0" r="14" fill="#2862a6"/>
<text x="528" y="354.0" font-size="12" font-weight="700" fill="#fff" text-anchor="middle" >8</text>
<text x="550" y="354.0" font-size="13.5" font-weight="600" fill="#1b2632" text-anchor="start" >Score / Route</text>
<rect x="714" y="320" width="196" height="58" rx="9" fill="#ffffff" stroke="#9cc0e8" stroke-width="1.6"/>
<circle cx="736" cy="349.0" r="14" fill="#2862a6"/>
<text x="736" y="354.0" font-size="12" font-weight="700" fill="#fff" text-anchor="middle" >9</text>
<text x="758" y="346.0" font-size="13.2" font-weight="600" fill="#1b2632" text-anchor="start" >Route Freshness</text>
<text x="758" y="363.0" font-size="13.2" font-weight="600" fill="#1b2632" text-anchor="start" >Gate</text>
<rect x="922" y="320" width="196" height="58" rx="9" fill="#ffffff" stroke="#9cc0e8" stroke-width="1.6"/>
<circle cx="944" cy="349.0" r="14" fill="#2862a6"/>
<text x="944" y="354.0" font-size="12" font-weight="700" fill="#fff" text-anchor="middle" >10</text>
<text x="966" y="354.0" font-size="13.5" font-weight="600" fill="#1b2632" text-anchor="start" >Session Program</text>
<line x1="286" y1="349.0" x2="296" y2="349.0" stroke="#6b7686" stroke-width="1.8" marker-end="url(#arr)"/>
<line x1="494" y1="349.0" x2="504" y2="349.0" stroke="#6b7686" stroke-width="1.8" marker-end="url(#arr)"/>
<line x1="702" y1="349.0" x2="712" y2="349.0" stroke="#6b7686" stroke-width="1.8" marker-end="url(#arr)"/>
<line x1="910" y1="349.0" x2="920" y2="349.0" stroke="#6b7686" stroke-width="1.8" marker-end="url(#arr)"/>
<text x="299" y="397" font-size="10.5" font-weight="400" fill="#7a5b22" text-anchor="start" >timeliness informs scoring; route gate removes stale utility / grave candidates</text>
<path d="M 1118,349.0 L 1210,349.0 L 1210,170 L 188.0,170 L 188.0,224" fill="none" stroke="#7c5cbf" stroke-width="2.2" stroke-dasharray="7 6" marker-end="url(#arrPurple)"/>
<text x="1232" y="330" font-size="11.5" font-weight="650" fill="#7c5cbf" text-anchor="middle" transform="rotate(90 1232 330)">Layer 2 feedback &gt; next acquisition window</text>
<line x1="609" y1="452" x2="609" y2="478" stroke="#6b7686" stroke-width="2.1" marker-end="url(#arr)"/>
<rect x="72" y="480" width="1075" height="126" rx="14" fill="#fff7ec" stroke="#d99a30" stroke-width="1.8"/>
<text x="94" y="506" font-size="14" font-weight="750" fill="#b5781c" text-anchor="start" >2  GIVE THE MODEL A SMALL, SAFE, WELL-FED JOB</text>
<rect x="90" y="524" width="196" height="58" rx="9" fill="#ffffff" stroke="#e6bd7a" stroke-width="1.6"/>
<circle cx="112" cy="553.0" r="14" fill="#c4781a"/>
<text x="112" y="558.0" font-size="12" font-weight="700" fill="#fff" text-anchor="middle" >11</text>
<text x="134" y="550.0" font-size="13.2" font-weight="600" fill="#1b2632" text-anchor="start" >Build Generation</text>
<text x="134" y="567.0" font-size="13.2" font-weight="600" fill="#1b2632" text-anchor="start" >Packet</text>
<rect x="298" y="524" width="196" height="58" rx="9" fill="#ffffff" stroke="#e6bd7a" stroke-width="1.6"/>
<circle cx="320" cy="553.0" r="14" fill="#c4781a"/>
<text x="320" y="558.0" font-size="12" font-weight="700" fill="#fff" text-anchor="middle" >12</text>
<text x="342" y="558.0" font-size="13.5" font-weight="600" fill="#1b2632" text-anchor="start" >Packet Preflight</text>
<rect x="506" y="524" width="196" height="58" rx="9" fill="#ffffff" stroke="#e6bd7a" stroke-width="1.6"/>
<circle cx="528" cy="553.0" r="14" fill="#c4781a"/>
<text x="528" y="558.0" font-size="12" font-weight="700" fill="#fff" text-anchor="middle" >13</text>
<text x="550" y="558.0" font-size="13.5" font-weight="600" fill="#1b2632" text-anchor="start" >Block Contract</text>
<rect x="714" y="524" width="196" height="58" rx="9" fill="#ffffff" stroke="#e6bd7a" stroke-width="1.6"/>
<circle cx="736" cy="553.0" r="14" fill="#c4781a"/>
<text x="736" y="558.0" font-size="12" font-weight="700" fill="#fff" text-anchor="middle" >14</text>
<text x="758" y="550.0" font-size="13.2" font-weight="600" fill="#1b2632" text-anchor="start" >Corks /</text>
<text x="758" y="567.0" font-size="13.2" font-weight="600" fill="#1b2632" text-anchor="start" >Selected Libraries</text>
<rect x="922" y="524" width="196" height="58" rx="9" fill="#ffe6c0" stroke="#c4781a" stroke-width="2.2"/>
<circle cx="944" cy="553.0" r="14" fill="#c4781a"/>
<text x="944" y="558.0" font-size="12" font-weight="700" fill="#fff" text-anchor="middle" >15</text>
<text x="966" y="549.0" font-size="13.5" font-weight="700" fill="#1b2632" text-anchor="start" >LINE GENERATION</text>
<text x="966" y="569.0" font-size="9.8" font-weight="400" fill="#5b6675" text-anchor="start" >listener-facing freeform</text>
<line x1="286" y1="553" x2="296" y2="553" stroke="#6b7686" stroke-width="1.8" marker-end="url(#arr)"/>
<line x1="494" y1="553" x2="504" y2="553" stroke="#6b7686" stroke-width="1.8" marker-end="url(#arr)"/>
<line x1="702" y1="553" x2="712" y2="553" stroke="#6b7686" stroke-width="1.8" marker-end="url(#arr)"/>
<line x1="910" y1="553" x2="920" y2="553" stroke="#6b7686" stroke-width="1.8" marker-end="url(#arr)"/>
<text x="1128" y="600" font-size="10.5" font-weight="400" fill="#9a7a3a" text-anchor="end" font-style="italic">the wildcard is small, packeted, and bounded</text>
<line x1="609" y1="607" x2="609" y2="634" stroke="#6b7686" stroke-width="2.1" marker-end="url(#arr)"/>
<rect x="72" y="636" width="1075" height="226" rx="14" fill="#eff9f2" stroke="#3c9b65" stroke-width="1.8"/>
<text x="94" y="662" font-size="14" font-weight="750" fill="#2c8b57" text-anchor="start" >3  REFUSE TO AIR ANYTHING THAT BREAKS TRUST</text>
<rect x="92" y="684" width="205" height="60" rx="9" fill="#ffffff" stroke="#83c69a" stroke-width="1.6"/>
<circle cx="114" cy="714.0" r="14" fill="#2c8b57"/>
<text x="114" y="719.0" font-size="12" font-weight="700" fill="#fff" text-anchor="middle" >16</text>
<text x="136" y="719.0" font-size="13.5" font-weight="600" fill="#1b2632" text-anchor="start" >Sanitize</text>
<rect x="330" y="684" width="205" height="60" rx="9" fill="#d8f0df" stroke="#2c8b57" stroke-width="2.2"/>
<circle cx="352" cy="714.0" r="14" fill="#2c8b57"/>
<text x="352" y="719.0" font-size="12" font-weight="700" fill="#fff" text-anchor="middle" >17</text>
<text x="374" y="705.0" font-size="12.8" font-weight="600" fill="#1b2632" text-anchor="start" >Box 8a</text>
<text x="374" y="721.0" font-size="12.8" font-weight="600" fill="#1b2632" text-anchor="start" >Grounding</text>
<text x="374" y="737.0" font-size="9.2" font-weight="400" fill="#5b6675" text-anchor="start" >claims / names / numbers</text>
<rect x="568" y="684" width="205" height="60" rx="9" fill="#d8f0df" stroke="#2c8b57" stroke-width="2.2"/>
<circle cx="590" cy="714.0" r="14" fill="#2c8b57"/>
<text x="590" y="719.0" font-size="12" font-weight="700" fill="#fff" text-anchor="middle" >18</text>
<text x="612" y="705.0" font-size="12.8" font-weight="600" fill="#1b2632" text-anchor="start" >Box 8b</text>
<text x="612" y="721.0" font-size="12.8" font-weight="600" fill="#1b2632" text-anchor="start" >Treatment</text>
<text x="612" y="737.0" font-size="9.2" font-weight="400" fill="#5b6675" text-anchor="start" >privacy / route / boundaries</text>
<rect x="900" y="684" width="215" height="60" rx="9" fill="#ffffff" stroke="#83c69a" stroke-width="1.6"/>
<circle cx="922" cy="714.0" r="14" fill="#2c8b57"/>
<text x="922" y="719.0" font-size="12" font-weight="700" fill="#fff" text-anchor="middle" >20</text>
<text x="944" y="705.0" font-size="12.8" font-weight="600" fill="#1b2632" text-anchor="start" >Exact-Text Hash</text>
<text x="944" y="721.0" font-size="12.8" font-weight="600" fill="#1b2632" text-anchor="start" >→ TTS</text>
<text x="944" y="737.0" font-size="9.2" font-weight="400" fill="#5b6675" text-anchor="start" >approved text only</text>
<line x1="297" y1="714" x2="328" y2="714" stroke="#6b7686" stroke-width="1.8" marker-end="url(#arr)"/>
<line x1="535" y1="714" x2="566" y2="714" stroke="#6b7686" stroke-width="1.8" marker-end="url(#arr)"/>
<line x1="773" y1="714" x2="898" y2="714" stroke="#2c8b57" stroke-width="2.2" marker-end="url(#arrGreen)"/>
<text x="833" y="702" font-size="10" font-weight="750" fill="#2c8b57" text-anchor="middle" >PASS</text>
<rect x="650" y="776" width="300" height="58" rx="9" fill="#fff6f0" stroke="#d98b6b" stroke-width="1.6"/>
<circle cx="672" cy="805.0" r="14" fill="#b34c2f"/>
<text x="672" y="810.0" font-size="12" font-weight="700" fill="#fff" text-anchor="middle" >19</text>
<text x="694" y="801.0" font-size="13.5" font-weight="600" fill="#1b2632" text-anchor="start" >Route Fallback</text>
<text x="694" y="821.0" font-size="9.8" font-weight="400" fill="#5b6675" text-anchor="start" >rewrite once / safe template / silence</text>
<text x="975" y="808" font-size="9.8" font-weight="600" fill="#5b6675" text-anchor="start" >silence -&gt; skip TTS; music continues</text>
<path d="M 670,744 C 670,758 690,761 735,776" fill="none" stroke="#b34c2f" stroke-width="2" marker-end="url(#arrRed)"/>
<text x="690" y="762" font-size="10" font-weight="750" fill="#b34c2f" text-anchor="start" >FAIL</text>
<path d="M 650,805 L 170,805 L 170,746" fill="none" stroke="#2c8b57" stroke-width="2" stroke-dasharray="6 5" marker-end="url(#arrGreen)"/>
<text x="400" y="797" font-size="10.5" font-weight="650" fill="#2c8b57" text-anchor="middle" >new text &gt; full re-gate through Sanitize + Box 8a + Box 8b</text>
<text x="609" y="851" font-size="11" font-weight="500" fill="#3f7f58" text-anchor="middle" font-style="italic">policy-controlled, fail-closed; final disposition is deterministic</text>
<rect x="72" y="884" width="1075" height="62" rx="11" fill="#16202e" stroke="#16202e" stroke-width="1.5"/>
<text x="609" y="922" font-size="18" font-weight="700" fill="#ffffff" text-anchor="middle" >music  &gt;  approved DJ moment (or silence)  &gt;  music  —  what the listener hears</text>
<rect x="72" y="957" width="1075" height="40" rx="9" fill="#f4efff" stroke="#b9a6e5" stroke-width="1.4"/>
<text x="609" y="982" font-size="12.5" font-weight="650" fill="#655096" text-anchor="middle" >21  AMBIENT / VISUAL LAYER — cards under music; grave cooldown permits neutral now-playing / time-weather only</text>
<rect x="72" y="1010" width="1075" height="86" rx="12" fill="#f7f9fb" stroke="#b7c0ca" stroke-width="1.4" stroke-dasharray="3 3"/>
<text x="94" y="1034" font-size="12.5" font-weight="700" fill="#5b6675" text-anchor="start" >CROSS-CUTTING — applies across stages</text>
<rect x="92" y="1046" width="225" height="36" rx="7" fill="#ffffff" stroke="#c5ccd5" stroke-width="1.2"/>
<text x="204.5" y="1069" font-size="12" font-weight="600" fill="#334252" text-anchor="middle" >Cost / Cache</text>
<rect x="347" y="1046" width="225" height="36" rx="7" fill="#ffffff" stroke="#c5ccd5" stroke-width="1.2"/>
<text x="459.5" y="1069" font-size="12" font-weight="600" fill="#334252" text-anchor="middle" >Pipeline Error Handling</text>
<rect x="602" y="1046" width="225" height="36" rx="7" fill="#ffffff" stroke="#c5ccd5" stroke-width="1.2"/>
<text x="714.5" y="1069" font-size="12" font-weight="600" fill="#334252" text-anchor="middle" >Observability · 22 Log · 23 Eval</text>
<rect x="857" y="1046" width="225" height="36" rx="7" fill="#ffffff" stroke="#c5ccd5" stroke-width="1.2"/>
<text x="969.5" y="1069" font-size="12" font-weight="600" fill="#334252" text-anchor="middle" >Policy / Versioning</text>
<rect x="72" y="1110" width="1075" height="94" rx="12" fill="#eef1f5" stroke="#9da9b7" stroke-width="1.5"/>
<text x="94" y="1134" font-size="12.5" font-weight="700" fill="#566273" text-anchor="start" >PERSISTENCE — spans sessions beneath the pipeline</text>
<rect x="92" y="1146" width="317" height="42" rx="7" fill="#ffffff" stroke="#b8c1cc" stroke-width="1.2"/>
<text x="250.5" y="1164" font-size="12" font-weight="650" fill="#334252" text-anchor="middle" >Cross-Session Memory</text>
<text x="250.5" y="1180" font-size="9.8" font-weight="400" fill="#6b7686" text-anchor="middle" >permissioned, minimal, purpose-bound</text>
<rect x="430" y="1146" width="317" height="42" rx="7" fill="#ffffff" stroke="#b8c1cc" stroke-width="1.2"/>
<text x="588.5" y="1164" font-size="12" font-weight="650" fill="#334252" text-anchor="middle" >What-Aired History</text>
<text x="588.5" y="1180" font-size="9.8" font-weight="400" fill="#6b7686" text-anchor="middle" >no repeats; callbacks know what aired</text>
<rect x="768" y="1146" width="317" height="42" rx="7" fill="#ffffff" stroke="#b8c1cc" stroke-width="1.2"/>
<text x="926.5" y="1164" font-size="12" font-weight="650" fill="#334252" text-anchor="middle" >Listener Signals</text>
<text x="926.5" y="1180" font-size="9.8" font-weight="400" fill="#6b7686" text-anchor="middle" >feeds relevance and session pacing</text>
<text x="72" y="1240" font-size="12.5" font-weight="700" fill="#3a4654" text-anchor="start" >Legend</text>
<rect x="132" y="1225" width="20" height="20" rx="5" fill="#ffe6c0" stroke="#c4781a" stroke-width="1.4"/>
<text x="162" y="1240" font-size="11.5" font-weight="400" fill="#5b6675" text-anchor="start" >orange = listener-facing freeform generation</text>
<rect x="495" y="1225" width="20" height="20" rx="5" fill="#d8f0df" stroke="#2c8b57" stroke-width="1.4"/>
<text x="525" y="1240" font-size="11.5" font-weight="400" fill="#5b6675" text-anchor="start" >green = policy-controlled airing boundary</text>
<line x1="838" y1="1235" x2="880" y2="1235" stroke="#7c5cbf" stroke-width="2" stroke-dasharray="6 5" marker-end="url(#arrPurple)"/>
<text x="892" y="1240" font-size="11.5" font-weight="400" fill="#5b6675" text-anchor="start" >purple = Layer 2 feedback to acquisition</text>
<text x="72" y="1282" font-size="12" font-weight="500" fill="#697484" text-anchor="start" >Three jobs: decide what deserves attention &gt; give the model a narrow, well-fed job &gt; refuse to air anything that breaks trust.</text>
<text x="72" y="1305" font-size="12" font-weight="700" fill="#2c8b57" text-anchor="start" >Critical invariant: every fallback creates new text, so every fallback must pass the full gate again before TTS.</text>
</svg>